<?xml version="1.0" encoding="UTF-8"?>
<svg width="936px" height="424px" viewBox="0 0 936 424" version="1.1" xmlns="http://www.w3.org/2000/svg" xmlns:xlink="http://www.w3.org/1999/xlink">
    <!-- Generator: Sketch 52.5 (67469) - http://www.bohemiancoding.com/sketch -->
    <title>Group</title>
    <desc>Created with Sketch.</desc>
    <defs>
        <rect id="path-1" x="0" y="0" width="620" height="420" rx="4"></rect>
        <path d="M4,0 L188,0 L188,420 L4,420 C1.790861,420 2.705415e-16,418.209139 0,416 L0,4 C-2.705415e-16,1.790861 1.790861,4.05812251e-16 4,0 Z" id="path-2"></path>
        <filter x="-0.3%" y="-0.1%" width="101.1%" height="100.2%" filterUnits="objectBoundingBox" id="filter-3">
            <feOffset dx="1" dy="0" in="SourceAlpha" result="shadowOffsetOuter1"></feOffset>
            <feColorMatrix values="0 0 0 0 0   0 0 0 0 0   0 0 0 0 0  0 0 0 1 0" type="matrix" in="shadowOffsetOuter1"></feColorMatrix>
        </filter>
        <linearGradient x1="50%" y1="0%" x2="50%" y2="100%" id="linearGradient-4">
            <stop stop-color="#161313" offset="0%"></stop>
            <stop stop-color="#4C4C4C" offset="100%"></stop>
        </linearGradient>
    </defs>
    <g id="Page-1" stroke="none" stroke-width="1" fill="none" fill-rule="evenodd">
        <g id="Desktop" transform="translate(-50.000000, -34.000000)">
            <g id="Group" transform="translate(52.000000, 36.000000)">
                <g id="Main">
                    <g id="Container">
                        <rect stroke="#707171" stroke-width="2" fill="#1F2022" fill-rule="evenodd" x="-1" y="-1" width="622" height="422" rx="4"></rect>
                        <rect stroke="#5E5F61" stroke-width="1" x="-0.5" y="-0.5" width="621" height="421" rx="4"></rect>
                    </g>
                    <g id="Nav-Bar">
                        <g id="Container">
                            <use fill="black" fill-opacity="1" filter="url(#filter-3)" xlink:href="#path-2"></use>
                            <use fill="#2D2E30" fill-rule="evenodd" xlink:href="#path-2"></use>
                        </g>
                        <g id="Add-List" transform="translate(15.000000, 391.000000)" fill="#A9A9AC">
                            <path d="M7,7.5 L3,7.5 L3,8.5 L7,8.5 L7,12.5 L8,12.5 L8,8.5 L12,8.5 L12,7.5 L8,7.5 L8,3.5 L7,3.5 L7,7.5 Z M7.5,15.5 C3.35786438,15.5 0,12.1421356 0,8 C0,3.85786438 3.35786438,0.5 7.5,0.5 C11.6421356,0.5 15,3.85786438 15,8 C15,12.1421356 11.6421356,15.5 7.5,15.5 Z" id="Icon"></path>
                            <text font-family="HelveticaNeue, Helvetica Neue" font-size="13" font-weight="normal" letter-spacing="0.2">
                                <tspan x="22" y="13">Add List</tspan>
                            </text>
                        </g>
                        <g id="Topics" transform="translate(0.000000, 63.000000)">
                            <g id="Archive" transform="translate(0.000000, 286.000000)">
                                <rect id="Container" fill="#515254" opacity="0" x="0" y="0" width="188" height="26"></rect>
                                <text id="Title" font-family="HelveticaNeue, Helvetica Neue" font-size="13" font-weight="normal" letter-spacing="0.13" fill="#FFFFFF">
                                    <tspan x="32" y="18">Archive</tspan>
                                </text>
                                <text id="State" font-family="LucidaGrande, Lucida Grande" font-size="13" font-weight="normal" fill="#FFFFFF">
                                    <tspan x="17" y="18">►</tspan>
                                </text>
                            </g>
                            <g id="IS1103" transform="translate(0.000000, 208.000000)">
                                <rect id="Container" fill="#515254" opacity="0" x="0" y="0" width="188" height="26"></rect>
                                <text id="Due" font-family="HelveticaNeue, Helvetica Neue" font-size="13" font-weight="normal" letter-spacing="0.13" fill="#FFFFFF">
                                    <tspan x="163" y="18">2</tspan>
                                </text>
                                <text id="Title" font-family="HelveticaNeue, Helvetica Neue" font-size="13" font-weight="normal" letter-spacing="0.13" fill="#FFFFFF">
                                    <tspan x="32" y="18">IS1103</tspan>
                                </text>
                                <text id="State" font-family="LucidaGrande, Lucida Grande" font-size="13" font-weight="normal" fill="#FFFFFF">
                                    <tspan x="17" y="18">►</tspan>
                                </text>
                            </g>
                            <g id="GEH1075" transform="translate(0.000000, 182.000000)">
                                <rect id="Container" fill="#515254" opacity="0" x="0" y="0" width="188" height="26"></rect>
                                <text id="Title" font-family="HelveticaNeue, Helvetica Neue" font-size="13" font-weight="normal" letter-spacing="0.13" fill="#FFFFFF">
                                    <tspan x="32" y="18">GEH1075</tspan>
                                </text>
                                <text id="State" font-family="LucidaGrande, Lucida Grande" font-size="13" font-weight="normal" fill="#FFFFFF">
                                    <tspan x="17" y="18">►</tspan>
                                </text>
                            </g>
                            <g id="GET1023" transform="translate(0.000000, 156.000000)">
                                <rect id="Container" fill="#515254" opacity="0" x="0" y="0" width="188" height="26"></rect>
                                <text id="Due" font-family="HelveticaNeue, Helvetica Neue" font-size="13" font-weight="normal" letter-spacing="0.13" fill="#FFFFFF">
                                    <tspan x="156" y="18">13</tspan>
                                </text>
                                <text id="Title" font-family="HelveticaNeue, Helvetica Neue" font-size="13" font-weight="normal" letter-spacing="0.13" fill="#FFFFFF">
                                    <tspan x="32" y="18">GET1023</tspan>
                                </text>
                                <text id="State" font-family="LucidaGrande, Lucida Grande" font-size="13" font-weight="normal" fill="#FFFFFF">
                                    <tspan x="17" y="18">►</tspan>
                                </text>
                            </g>
                            <g id="CS1010J" transform="translate(0.000000, 130.000000)">
                                <rect id="Container" fill="#515254" opacity="0" x="0" y="0" width="188" height="26"></rect>
                                <text id="Due" font-family="HelveticaNeue, Helvetica Neue" font-size="13" font-weight="normal" letter-spacing="0.13" fill="#FFFFFF">
                                    <tspan x="163" y="18">4</tspan>
                                </text>
                                <text id="Title" font-family="HelveticaNeue, Helvetica Neue" font-size="13" font-weight="normal" letter-spacing="0.13" fill="#FFFFFF">
                                    <tspan x="32" y="18">CS1010J</tspan>
                                </text>
                                <text id="State" font-family="LucidaGrande, Lucida Grande" font-size="13" font-weight="normal" fill="#FFFFFF">
                                    <tspan x="17" y="18">►</tspan>
                                </text>
                            </g>
                            <g id="MA1301">
                                <g id="Complex-Numbers" transform="translate(0.000000, 104.000000)">
                                    <rect id="Container" fill="#515254" opacity="0" x="0" y="0" width="188" height="26"></rect>
                                    <text id="Due" font-family="Helvetica" font-size="13" font-weight="normal" letter-spacing="0.129999995" fill="#FFFFFF">
                                        <tspan x="163" y="18">5</tspan>
                                    </text>
                                    <text id="Title" font-family="Helvetica" font-size="13" font-weight="normal" letter-spacing="0.129999995" fill="#FFFFFF">
                                        <tspan x="37" y="18">Complex Numbers</tspan>
                                    </text>
                                </g>
                                <g id="Vectors" transform="translate(0.000000, 78.000000)">
                                    <rect id="Container" fill="#515254" opacity="0" x="0" y="0" width="188" height="26"></rect>
                                    <text id="Title" font-family="Helvetica" font-size="13" font-weight="normal" letter-spacing="0.129999995" fill="#FFFFFF">
                                        <tspan x="37" y="18">Vectors</tspan>
                                    </text>
                                </g>
                                <g id="Differentiation" transform="translate(0.000000, 52.000000)">
                                    <rect id="Container" fill="#515254" opacity="0" x="0" y="0" width="188" height="26"></rect>
                                    <text id="Due" font-family="Helvetica" font-size="13" font-weight="normal" letter-spacing="0.129999995" fill="#FFFFFF">
                                        <tspan x="163" y="18">3</tspan>
                                    </text>
                                    <text id="Title" font-family="Helvetica" font-size="13" font-weight="normal" letter-spacing="0.129999995" fill="#FFFFFF">
                                        <tspan x="37" y="18">Differentiation</tspan>
                                    </text>
                                </g>
                                <g id="Sequences" transform="translate(0.000000, 26.000000)">
                                    <rect id="Container" fill="#515254" x="0" y="0" width="188" height="26"></rect>
                                    <text id="Due" font-family="Helvetica" font-size="13" font-weight="normal" letter-spacing="0.129999995" fill="#FFFFFF">
                                        <tspan x="163" y="18">4</tspan>
                                    </text>
                                    <text id="Title" font-family="Helvetica" font-size="13" font-weight="normal" letter-spacing="0.129999995" fill="#FFFFFF">
                                        <tspan x="37" y="18">Sequences</tspan>
                                    </text>
                                </g>
                                <rect id="Container" fill="#515254" opacity="0" x="0" y="0" width="188" height="26"></rect>
                                <text id="Due" font-family="HelveticaNeue, Helvetica Neue" font-size="13" font-weight="normal" letter-spacing="0.13" fill="#FFFFFF">
                                    <tspan x="156" y="18">12</tspan>
                                </text>
                                <text id="Title" font-family="HelveticaNeue, Helvetica Neue" font-size="13" font-weight="normal" letter-spacing="0.13" fill="#FFFFFF">
                                    <tspan x="32" y="18">MA1301</tspan>
                                </text>
                                <text id="State" font-family="LucidaGrande, Lucida Grande" font-size="13" font-weight="normal" fill="#FFFFFF">
                                    <tspan x="17" y="18">▼</tspan>
                                </text>
                            </g>
                        </g>
                        <g id="Search" transform="translate(10.000000, 26.000000)">
                            <rect id="Container" fill="url(#linearGradient-4)" x="0" y="0" width="169" height="20" rx="2"></rect>
                            <text id="Text" font-family="HelveticaNeue, Helvetica Neue" font-size="12" font-weight="normal" letter-spacing="0.3" fill="#78797B">
                                <tspan x="23" y="14">Search</tspan>
                            </text>
                            <path d="M14.5355339,13.5355339 L17.5,16.5 L14.5355339,13.5355339 C13.6307119,14.4403559 12.3807119,15 11,15 C8.23857625,15 6,12.7614237 6,10 C6,7.23857625 8.23857625,5 11,5 C13.7614237,5 16,7.23857625 16,10 C16,11.3807119 15.4403559,12.6307119 14.5355339,13.5355339 Z" id="Icon" stroke="#FFFFFF"></path>
                        </g>
                    </g>
                    <g id="Topic" transform="translate(189.000000, 20.000000)">
                        <g id="Questions" transform="translate(0.000000, 35.000000)">
                            <path d="M24,338.5 L417,338.5" id="Divider" stroke="#353637"></path>
                            <path d="M24,302.5 L417,302.5" id="Divider" stroke="#353637"></path>
                            <path d="M24,263.5 L417,263.5" id="Divider" stroke="#353637"></path>
                            <g id="Question-7" transform="translate(0.000000, 228.000000)">
                                <rect id="Container" fill="#2A2B2D" opacity="0" x="0" y="0" width="431" height="35"></rect>
                                <text id="Question" font-family="HelveticaNeue, Helvetica Neue" font-size="12" font-weight="normal" letter-spacing="0.400000006" fill="#DDDDDD">
                                    <tspan x="24" y="23">What is the proof of the formula for the sum of a geometric sequen…</tspan>
                                </text>
                            </g>
                            <path d="M24,227.5 L417,227.5" id="Divider" stroke="#353637"></path>
                            <g id="Question-6" transform="translate(0.000000, 189.000000)">
                                <rect id="Container" fill="#2A2B2D" opacity="0" x="0" y="0" width="431" height="38"></rect>
                                <text id="Due-Date" font-family="HelveticaNeue, Helvetica Neue" font-size="12" font-weight="normal" letter-spacing="0.3" fill="#C167D5">
                                    <tspan x="24" y="31">Yesterday, 12:00 PM</tspan>
                                </text>
                                <text id="Question" font-family="HelveticaNeue, Helvetica Neue" font-size="12" font-weight="normal" letter-spacing="0.400000006" fill="#DDDDDD">
                                    <tspan x="24" y="16">What is the telescoping sum of infinity about?</tspan>
                                </text>
                            </g>
                            <path d="M24,188.5 L417,188.5" id="Divider" stroke="#353637"></path>
                            <g id="Question-5" transform="translate(0.000000, 150.000000)">
                                <rect id="Container" fill="#2A2B2D" opacity="0" x="0" y="0" width="431" height="38"></rect>
                                <text id="Due-Date" font-family="HelveticaNeue, Helvetica Neue" font-size="12" font-weight="normal" letter-spacing="0.3" fill="#C167D5">
                                    <tspan x="24" y="31">11/12/18, 10:00 AM</tspan>
                                </text>
                                <text id="Question" font-family="HelveticaNeue, Helvetica Neue" font-size="12" font-weight="normal" letter-spacing="0.400000006" fill="#DDDDDD">
                                    <tspan x="24" y="16">Why can geometric sequences be infinitely long?</tspan>
                                </text>
                            </g>
                            <path d="M24,149.5 L417,149.5" id="Divider" stroke="#353637"></path>
                            <g id="Question-4" transform="translate(0.000000, 111.000000)">
                                <rect id="Container" fill="#2A2B2D" opacity="0" x="0" y="0" width="431" height="38"></rect>
                                <text id="Due-Date" font-family="HelveticaNeue, Helvetica Neue" font-size="12" font-weight="normal" letter-spacing="0.3" fill="#C167D5">
                                    <tspan x="24" y="31">Today, 10:00 AM</tspan>
                                </text>
                                <text id="Question" font-family="HelveticaNeue, Helvetica Neue" font-size="12" font-weight="normal" letter-spacing="0.400000006" fill="#DDDDDD">
                                    <tspan x="24" y="16">How do you sum an arithmetic sequence?</tspan>
                                </text>
                            </g>
                            <path d="M3.14123727e-14,110.5 L431,110.5" id="Divider" stroke="#353637"></path>
                            <g id="Question-3" transform="translate(0.000000, 75.000000)">
                                <rect id="Container" fill="#2A2B2D" x="0" y="0" width="431" height="35"></rect>
                                <text id="Question" font-family="HelveticaNeue, Helvetica Neue" font-size="12" font-weight="normal" letter-spacing="0.400000006" fill="#DDDDDD">
                                    <tspan x="24" y="23">How do you calculate the nth term of a geometric sequence?</tspan>
                                </text>
                            </g>
                            <path d="M2.84217094e-14,74.5 L431,74.5" id="Divider" stroke="#353637"></path>
                            <g id="Question-2" transform="translate(0.000000, 39.000000)">
                                <rect id="Container" fill="#2A2B2D" opacity="0" x="0" y="0" width="431" height="35"></rect>
                                <text id="Question" font-family="HelveticaNeue, Helvetica Neue" font-size="12" font-weight="normal" letter-spacing="0.400000006" fill="#DDDDDD">
                                    <tspan x="24" y="23">How do you sum a geometric sequence?</tspan>
                                </text>
                            </g>
                            <path d="M24,38.5 L417,38.5" id="Divider" stroke="#353637"></path>
                            <g id="Question-1">
                                <rect id="Container" fill="#2A2B2D" opacity="0" x="0" y="0" width="431" height="38"></rect>
                                <text id="Due-Date" font-family="HelveticaNeue, Helvetica Neue" font-size="12" font-weight="normal" letter-spacing="0.3" fill="#C167D5">
                                    <tspan x="24" y="31">Today, 10:00 AM</tspan>
                                </text>
                                <text id="Question" font-family="HelveticaNeue, Helvetica Neue" font-size="12" font-weight="normal" letter-spacing="0.400000006" fill="#DDDDDD">
                                    <tspan x="24" y="16">What is mathematical induction about?</tspan>
                                </text>
                            </g>
                        </g>
                        <path d="M14,34.5 L417,34.5" id="Divider" stroke="#353637"></path>
                        <g id="New-Question" transform="translate(385.000000, 6.000000)">
                            <rect id="Container" fill="#575859" x="0" y="0" width="32" height="19" rx="4"></rect>
                            <path d="M16,10 L16,4.5 L16,10 L10.5,10 L16,10 Z M16,10 L16,15.5 L16,10 L21.5,10 L16,10 Z" id="Icon" stroke="#E6E6E6" stroke-linecap="square"></path>
                        </g>
                        <g id="Study-Now" transform="translate(261.000000, 6.000000)">
                            <rect id="Container" fill="#575859" x="0" y="0" width="106" height="19" rx="4"></rect>
                            <text id="Text" font-family="HelveticaNeue, Helvetica Neue" font-size="12" font-weight="normal" fill="#E6E6E6">
                                <tspan x="8.17611719" y="12">Study Now (4) </tspan>
                                <tspan x="87.0641172" y="12" font-family="LucidaGrande, Lucida Grande">▼</tspan>
                            </text>
                        </g>
                        <text id="Title" font-family="HelveticaNeue, Helvetica Neue" font-size="26" font-weight="normal" fill="#C167D5">
                            <tspan x="14" y="25">Sequences</tspan>
                        </text>
                    </g>
                </g>
                <g id="Question" transform="translate(613.000000, 39.000000)">
                    <path d="M11.5,119.719951 L-0.739946391,108.5 L11.5,97.2800491 L11.5,4 C11.5,1.51471863 13.5147186,-0.5 16,-0.5 L316,-0.5 C318.485281,-0.5 320.5,1.51471863 320.5,4 L320.5,213 C320.5,215.485281 318.485281,217.5 316,217.5 L16,217.5 C13.5147186,217.5 11.5,215.485281 11.5,213 L11.5,119.719951 Z" id="Container" stroke="#535353" fill="#282828"></path>
                    <g id="Done" transform="translate(247.000000, 190.000000)">
                        <rect id="Container" fill="#646464" x="0" y="0" width="65" height="19" rx="3"></rect>
                        <text font-family="HelveticaNeue, Helvetica Neue" font-size="12" font-weight="normal" fill="#EFF1F0">
                            <tspan x="17" y="14">Done</tspan>
                        </text>
                    </g>
                    <g id="icons-solid" transform="translate(26.500000, 14.500000)" fill="#888A8C">
                        <path d="M272.73434,0 L265.223923,0 C264.536423,0 263.979131,0.557291667 263.979131,1.24479167 L263.979131,8.75520833 C263.979131,9.44270833 264.536423,10 265.223923,10 L272.73434,10 C273.42184,10 273.979131,9.44270833 273.979131,8.75520833 L273.979131,1.24479167 C273.979131,0.557291667 273.42184,0 272.73434,0 Z M277.666631,0.981770833 L274.812465,2.95052083 L274.812465,7.04947917 L277.666631,9.015625 C278.218715,9.39583333 278.979131,9.0078125 278.979131,8.34375 L278.979131,1.65364583 C278.979131,0.9921875 278.221319,0.6015625 277.666631,0.981770833 Z" id="video" fill-rule="nonzero"></path>
                        <path d="M64.9834168,5.6602629 L54.6211028,5.6602629 C54.4303283,5.6602629 54.2756923,5.50562695 54.2756923,5.31485243 L54.2756923,4.6240315 C54.2756923,4.43325698 54.4303283,4.27862104 54.6211028,4.27862104 L64.9834168,4.27862104 C65.1741913,4.27862104 65.3288272,4.43325698 65.3288272,4.6240315 L65.3288272,5.31485243 C65.3288272,5.50562695 65.1741913,5.6602629 64.9834168,5.6602629 Z M60.3491741,6.00567337 C60.937624,6.28495932 61.3535414,6.62488639 61.3535414,7.21985592 C61.3535414,7.93459653 60.7279814,8.37862168 59.7210235,8.37862168 C59.0231865,8.37862168 58.0614558,8.11783678 58.0614558,7.42289251 L58.0614558,7.38731523 C58.0614558,7.19654071 57.9067983,7.04190477 57.7160453,7.04190477 L56.7313448,7.04190477 C56.5405919,7.04190477 56.3859344,7.19654071 56.3859344,7.38731523 L56.3859344,7.80189414 C56.3859344,9.24495431 58.063701,10 59.7210235,10 C61.6332591,10 63.2185852,9.01907745 63.2185852,7.09803397 C63.2185852,6.67026469 63.1404792,6.31185816 62.9996165,6.00567337 L60.3491741,6.00567337 Z M59.6809775,3.93321057 C58.9810464,3.64166255 58.4539932,3.30831986 58.4539932,2.64476476 C58.4539932,1.91249458 59.1210887,1.62135673 59.8564029,1.62135673 C60.7770729,1.62135673 61.2588125,1.97956897 61.2588125,2.33344199 L61.2588125,2.37886347 C61.2588125,2.56963799 61.4134701,2.72427394 61.604223,2.72427394 L62.5889235,2.72427394 C62.7796764,2.72427394 62.9343339,2.56963799 62.9343339,2.37886347 L62.9343339,1.72435381 C62.9343339,0.592314185 61.3859236,0 59.8564029,0 C58.0170274,0 56.6025067,0.884509852 56.6025067,2.71246522 C56.6025067,3.2027322 56.7032155,3.60137905 56.8783386,3.93321057 L59.6809775,3.93321057 Z" id="strikethrough" fill-rule="nonzero"></path>
                        <path d="M6.62484375,4.72970982 C7.37571429,4.3159375 7.82254464,3.52078125 7.82254464,2.59370536 C7.82254464,1.51700893 7.23660714,0.637767857 6.29071429,0.26828125 C5.7396875,0.0448660714 5.19752232,0 4.50136161,0 L0.357142857,0 C0.159888393,0 3.28626015e-14,0.159888393 3.28626015e-14,0.357142857 L3.28626015e-14,1.09484375 C3.28626015e-14,1.29209821 0.159888393,1.45198661 0.357142857,1.45198661 L1.09627232,1.45198661 L1.09627232,8.56203125 L0.357142857,8.56203125 C0.159888393,8.56203125 3.28626015e-14,8.72191964 3.28626015e-14,8.91917411 L3.28626015e-14,9.64285714 C3.28626015e-14,9.84011161 0.159888393,10 0.357142857,10 L4.72522321,10 C5.26546875,10 5.72598214,9.97122768 6.21776786,9.83071429 C7.35535714,9.49091518 8.21428571,8.45194196 8.21428571,7.09852679 C8.21428571,5.9340625 7.62113839,5.05200893 6.62484375,4.72970982 Z M2.99591518,1.53591518 L4.50136161,1.53591518 C4.86506696,1.53591518 5.11600446,1.58098214 5.33897321,1.68584821 C5.69227679,1.87511161 5.89491071,2.27741071 5.89491071,2.78955357 C5.89491071,3.57145089 5.44133929,4.0571875 4.71122768,4.0571875 L2.99591518,4.0571875 L2.99591518,1.53591518 Z M5.51024554,8.35455357 C5.28390625,8.44508929 5.0040625,8.46408482 4.80915179,8.46408482 L2.99591518,8.46408482 L2.99591518,5.57908482 L4.87910714,5.57908482 C5.76404018,5.57908482 6.28662946,6.14560268 6.28662946,6.98660714 C6.28665179,7.62109375 5.98171875,8.15810268 5.51024554,8.35455357 Z" id="bold" fill-rule="nonzero"></path>
                        <path d="M198.009664,9.99025973 L196.818168,9.6445306 C196.693159,9.6093717 196.622841,9.47850248 196.658,9.35349308 L199.324216,0.169208541 C199.359375,0.0441991388 199.490244,-0.0261186501 199.615254,0.00904024436 L200.806749,0.354769373 C200.931759,0.389928268 201.002077,0.520797486 200.966918,0.645806888 L198.300702,9.83009143 C198.263589,9.95510083 198.134673,10.0273719 198.009664,9.99025973 Z M195.782934,7.79868864 L196.632607,6.89237047 C196.722458,6.79666015 196.716598,6.64430494 196.616981,6.5564077 L194.847317,4.99964999 L196.616981,3.44289227 C196.716598,3.35499503 196.724411,3.20263982 196.632607,3.1069295 L195.782934,2.20061133 C195.695037,2.10685428 195.546588,2.10099446 195.450878,2.19084497 L192.636213,4.82776206 C192.536596,4.91956584 192.536596,5.07778086 192.636213,5.16958464 L195.450878,7.808455 C195.546588,7.89830551 195.695037,7.89439896 195.782934,7.79868864 Z M202.17404,7.81040827 L204.988705,5.17153791 C205.088321,5.07973413 205.088321,4.92151911 204.988705,4.82971533 L202.17404,2.1888917 C202.080283,2.10099446 201.931834,2.10490101 201.841983,2.19865806 L200.99231,3.10497623 C200.90246,3.20068655 200.90832,3.35304176 201.007936,3.440939 L202.777601,4.99964999 L201.007936,6.5564077 C200.90832,6.64430494 200.900506,6.79666015 200.99231,6.89237047 L201.841983,7.79868864 C201.929881,7.89439896 202.078329,7.89830551 202.17404,7.81040827 Z" id="code" fill-rule="nonzero"></path>
                        <path d="M40.6591379,3.62092066 C41.8260692,4.78906291 41.8100537,6.66189129 40.6661692,7.81212341 C40.6640207,7.81446716 40.6614817,7.81700622 40.6591379,7.81934996 L39.3466405,9.1318474 C38.1890256,10.2894623 36.3056503,10.2893061 35.1482112,9.1318474 C33.9905963,7.97442778 33.9905963,6.09083771 35.1482112,4.9334181 L35.8729363,4.20869295 C36.0651235,4.01650583 36.3960994,4.14423995 36.4060212,4.41584098 C36.4186775,4.76197312 36.4807477,5.10972635 36.5952787,5.445546 C36.6340677,5.55925672 36.6063529,5.68503772 36.5213921,5.7699985 L36.2657871,6.02560347 C35.7184054,6.57298521 35.7012375,7.46427253 36.2432286,8.01700583 C36.7905713,8.57518833 37.6902179,8.57850864 38.2417598,8.02696674 L39.5542573,6.71466462 C40.1048617,6.16406023 40.102557,5.27410103 39.5542573,4.72580132 C39.4819723,4.65365302 39.4091599,4.59759844 39.352285,4.55843836 C39.2706992,4.50241341 39.2203915,4.4111252 39.2166017,4.31222791 C39.2088673,4.10584159 39.2819922,3.89316622 39.4450778,3.73008061 L39.8562879,3.31885094 C39.9641198,3.21101912 40.1332796,3.19777696 40.2583184,3.28504241 C40.4015151,3.38503236 40.5356386,3.49742495 40.6591379,3.62092066 Z M43.4117693,0.868152602 C42.2543301,-0.289306075 40.3709549,-0.289462324 39.21334,0.868152602 L37.9008425,2.18065004 C37.8984988,2.18299378 37.8959597,2.18553284 37.8938113,2.18787659 C36.7499463,3.33810871 36.7339112,5.21093709 37.9008425,6.37907934 C38.0243346,6.50256947 38.1584517,6.61495564 38.3016425,6.71493806 C38.4266814,6.80220351 38.5958607,6.78894182 38.703673,6.68112953 L39.1148831,6.26989986 C39.2779688,6.10681424 39.3510936,5.89413888 39.3433593,5.68775256 C39.3395694,5.58885527 39.2892617,5.49756706 39.2076759,5.44154211 C39.150801,5.40238203 39.0779887,5.34632745 39.0057037,5.27417915 C38.4574039,4.72587944 38.4550993,3.83592024 39.0057037,3.28531585 L40.3182011,1.97301373 C40.869743,1.42147183 41.7693701,1.42479214 42.3167323,1.98297464 C42.8587235,2.53570794 42.8415751,3.42699526 42.2941738,3.974377 L42.0385688,4.22998197 C41.9536081,4.31494274 41.9258933,4.44072375 41.9646823,4.55443446 C42.0792133,4.89025412 42.1412835,5.23800735 42.1539397,5.58413948 C42.1638811,5.85574052 42.4948375,5.98347464 42.6870246,5.79128752 L43.4117497,5.06656237 C44.5693842,3.90916229 44.5693842,2.02557222 43.4117693,0.868152602 Z" id="link" fill-rule="nonzero"></path>
                        <path d="M235.416274,0 L226.13056,0 C225.538819,0 225.059131,0.4796875 225.059131,1.07142857 L225.059131,8.92857143 C225.059131,9.5203125 225.538819,10 226.13056,10 L235.416274,10 C236.008015,10 236.487703,9.5203125 236.487703,8.92857143 L236.487703,1.07142857 C236.487703,0.4796875 236.008015,0 235.416274,0 Z M230.059131,8.57142857 L226.487703,8.57142857 L226.487703,6.42857143 L230.059131,6.42857143 L230.059131,8.57142857 Z M230.059131,5 L226.487703,5 L226.487703,2.85714286 L230.059131,2.85714286 L230.059131,5 Z M235.059131,8.57142857 L231.487703,8.57142857 L231.487703,6.42857143 L235.059131,6.42857143 L235.059131,8.57142857 Z M235.059131,5 L231.487703,5 L231.487703,2.85714286 L235.059131,2.85714286 L235.059131,5 Z" id="table" fill-rule="nonzero"></path>
                        <path d="M84.1459254,5 C84.2231799,4.76504464 84.565479,4.525 84.9554121,4.27622768 C85.3265058,4.03950893 85.7470862,3.77118304 86.0790951,3.40877232 C86.4687826,2.98345982 86.6582022,2.51200893 86.6582022,1.96754464 C86.6582022,0.615714286 85.5264612,0 84.4749433,0 C83.5264835,0 82.7700772,0.491428571 82.3670862,1.12604911 C82.2632022,1.28964286 82.309229,1.50631696 82.4702781,1.61410714 L83.1472424,2.06714286 C83.3042067,2.1721875 83.5146531,2.13598214 83.6300549,1.98647321 C83.8091174,1.75446429 84.0500996,1.57966518 84.3369076,1.57966518 C84.7696531,1.57966518 84.9232022,1.86763393 84.9232022,2.11421875 C84.9232022,2.92133929 82.2571978,3.38705357 82.2571978,5.68618304 C82.2571978,5.83470982 82.2697201,5.97667411 82.2887826,6.11767857 C82.3128004,6.29544643 82.4636487,6.42857143 82.6430237,6.42857143 L86.3959701,6.42857143 C86.5932246,6.42857143 86.7531129,6.26868304 86.7531129,6.07142857 L86.7531129,5.35714286 C86.7531129,5.15988839 86.5932246,5 86.3959701,5 L84.1459254,5 Z M81.3959701,8.57142857 C81.5932246,8.57142857 81.7531129,8.73131696 81.7531129,8.92857143 L81.7531129,9.64285714 C81.7531129,9.84011161 81.5932246,10 81.3959701,10 L80.0031353,10 C79.8803945,9.99999523 79.7662556,9.93696215 79.7008808,9.83308036 L78.6807692,8.21220982 C78.6294969,8.13738839 78.5820638,8.05665179 78.5424879,7.98433036 C78.5056576,8.05674107 78.4610817,8.13917411 78.4113719,8.22053571 L77.4133362,9.83095982 C77.3482209,9.93604498 77.2333887,9.99997948 77.1097647,9.99997768 L75.6816844,9.99997768 C75.4844299,9.99997768 75.3245415,9.84008929 75.3245415,9.64283482 L75.3245415,8.92854911 C75.3245415,8.73129464 75.4844299,8.57140625 75.6816844,8.57140625 L76.269296,8.57140625 L77.5316174,6.72522321 L76.3538049,5 L75.6816844,5 C75.4844299,5 75.3245415,4.84011161 75.3245415,4.64285714 L75.3245415,3.92857143 C75.3245415,3.73131696 75.4844299,3.57142857 75.6816844,3.57142857 L77.2175326,3.57142857 C77.3418324,3.57142608 77.4571929,3.6360516 77.5221085,3.74205357 L78.4123317,5.19575893 C78.4585817,5.27439732 78.5028004,5.35582589 78.5401665,5.42723214 C78.5798317,5.35482143 78.6276665,5.27200893 78.6793853,5.19203125 L79.5796531,3.74035714 C79.6447901,3.63533143 79.759595,3.5714449 79.8831799,3.57145089 L81.3959701,3.57145089 C81.5932246,3.57145089 81.7531129,3.73133929 81.7531129,3.92859375 L81.7531129,4.64287946 C81.7531129,4.84013393 81.5932246,5.00002232 81.3959701,5.00002232 L80.7714388,5.00002232 L79.5953228,6.68910714 L80.9043183,8.57142857 L81.3959701,8.57142857 Z" id="superscript" fill-rule="nonzero"></path>
                        <path d="M22.2441553,8.57142857 L21.4885973,8.57142857 L22.8745794,1.42857143 L23.7836196,1.42857143 C23.9545028,1.42857061 24.1014419,1.30752175 24.1341553,1.13979911 L24.2734857,0.425513393 C24.3164991,0.205 24.1476375,0 23.92295,0 L20.3574812,0 C20.1865981,8.21211965e-07 20.039659,0.121049682 20.0069455,0.288772321 L19.8676152,1.00305804 C19.8246018,1.22357143 19.9934634,1.42857143 20.2181509,1.42857143 L20.9736419,1.42857143 L19.5877044,8.57142857 L18.7066553,8.57142857 C18.535786,8.57142523 18.3888518,8.69245136 18.3561196,8.86015625 L18.2167223,9.57444196 C18.1737089,9.79497768 18.3425705,10 18.5672803,10 L22.104758,10 C22.2756273,10.0000033 22.4225616,9.87897721 22.4552937,9.71127232 L22.594691,8.99698661 C22.6377044,8.77645089 22.4688428,8.57142857 22.2441553,8.57142857 Z" id="italic"></path>
                        <path d="M181.494357,5 L179.708643,5 L179.708643,3.57142857 C179.708643,2.78348214 180.349268,2.14285714 181.137215,2.14285714 L181.315786,2.14285714 C181.612661,2.14285714 181.8515,1.90401786 181.8515,1.60714286 L181.8515,0.535714286 C181.8515,0.238839286 181.612661,0 181.315786,0 L181.137215,0 C179.164,0 177.565786,1.59821429 177.565786,3.57142857 L177.565786,8.92857143 C177.565786,9.52008929 178.045697,10 178.637215,10 L181.494357,10 C182.085875,10 182.565786,9.52008929 182.565786,8.92857143 L182.565786,6.07142857 C182.565786,5.47991071 182.085875,5 181.494357,5 Z M175.065786,5 L173.280072,5 L173.280072,3.57142857 C173.280072,2.78348214 173.920697,2.14285714 174.708643,2.14285714 L174.887215,2.14285714 C175.18409,2.14285714 175.422929,1.90401786 175.422929,1.60714286 L175.422929,0.535714286 C175.422929,0.238839286 175.18409,0 174.887215,0 L174.708643,0 C172.735429,0 171.137215,1.59821429 171.137215,3.57142857 L171.137215,8.92857143 C171.137215,9.52008929 171.617125,10 172.208643,10 L175.065786,10 C175.657304,10 176.137215,9.52008929 176.137215,8.92857143 L176.137215,6.07142857 C176.137215,5.47991071 175.657304,5 175.065786,5 Z" id="quote-left" fill-rule="nonzero"></path>
                        <path d="M149.785738,2.40016161 C149.785738,2.23326391 149.873172,2.14185746 150.044065,2.14185746 L150.381811,2.14185746 L150.381811,1.25174387 C150.381811,1.13649807 150.393731,1.01730138 150.393731,1.01730138 L150.385784,1.01730138 C150.385784,1.01730138 150.346074,1.07689973 150.322213,1.10073906 C150.22286,1.19611874 150.087748,1.20009196 149.972524,1.07689973 L149.849355,0.937814593 C149.730113,0.818595577 149.738104,0.687456892 149.861274,0.572211099 L150.346097,0.127165462 C150.445383,0.0357590084 150.532816,0 150.667928,0 L150.938129,0 C151.109023,0 151.200384,0.0874109094 151.200384,0.258304148 L151.200384,2.14187978 L151.546099,2.14187978 C151.71697,2.14187978 151.804404,2.23326391 151.804404,2.40018393 L151.804404,2.59886741 C151.804404,2.7657651 151.71697,2.85717156 151.546099,2.85717156 L150.044065,2.85717156 C149.873172,2.85717156 149.785738,2.7657651 149.785738,2.59886741 L149.785738,2.40016161 Z M149.762256,6.08463412 C149.762256,5.02931926 150.899647,4.8260822 150.899647,4.54076906 C150.899647,4.38050085 150.766745,4.34534452 150.692504,4.34534452 C150.622124,4.34534452 150.547883,4.36880439 150.481454,4.43132686 C150.368083,4.54076906 150.246922,4.58766649 150.121833,4.4860368 L149.930337,4.33360342 C149.801341,4.23197373 149.770069,4.11474133 149.86777,3.98965176 C150.016297,3.79422722 150.29382,3.57143654 150.770651,3.57143654 C151.204514,3.57143654 151.763421,3.805946 151.763421,4.45476441 C151.763421,5.31072614 150.719825,5.49052565 150.676834,5.72505742 L151.548465,5.72505742 C151.716524,5.72505742 151.806435,5.81494602 151.806435,5.97912049 L151.806435,6.17454503 C151.806435,6.33869718 151.716524,6.4286081 151.548465,6.4286081 L150.031944,6.4286081 C149.875582,6.4286081 149.762234,6.33869718 149.762234,6.17454503 L149.762234,6.08463412 L149.762256,6.08463412 Z M149.839109,9.43327998 L149.964176,9.22613667 C150.050181,9.07760955 150.167413,9.06979703 150.312034,9.15577937 C150.421476,9.20267679 150.52699,9.22613667 150.632548,9.22613667 C150.859223,9.22613667 150.95304,9.14796685 150.95304,9.0424309 C150.95304,8.89390378 150.82795,8.83917152 150.59737,8.83917152 L150.491834,8.83917152 C150.358932,8.83917152 150.28469,8.79227409 150.218217,8.66327827 L150.194779,8.6202871 C150.140069,8.51475115 150.167413,8.40140268 150.257302,8.28805421 L150.382391,8.13171458 C150.534825,7.94410255 150.655986,7.83075409 150.655986,7.83075409 L150.655986,7.82294157 C150.655986,7.82294157 150.562169,7.84640144 150.374557,7.84640144 L150.085337,7.84640144 C149.917256,7.84640144 149.831252,7.75649053 149.831252,7.59233838 L149.831252,7.39691383 C149.831252,7.2288331 149.917256,7.14285077 150.085337,7.14285077 L151.390787,7.14285077 C151.558845,7.14285077 151.64485,7.23273936 151.64485,7.39691383 L151.64485,7.47117739 C151.64485,7.60015089 151.613577,7.69006181 151.531479,7.78776292 L151.140652,8.23725053 C151.578399,8.350599 151.781636,8.69455066 151.781636,9.01504244 C151.781636,9.49189619 151.461144,10 150.698977,10 C150.327637,10 150.06969,9.89446405 149.897725,9.78895042 C149.768729,9.69515557 149.757011,9.57008833 149.839109,9.43327998 Z M152.927196,2.23214784 L160.784357,2.23214784 C160.981612,2.23214784 161.1415,2.07225909 161.1415,1.87500419 L161.1415,0.982145049 C161.1415,0.784890145 160.981612,0.625001395 160.784357,0.625001395 L152.927196,0.625001395 C152.729941,0.625001395 152.570053,0.784890145 152.570053,0.982145049 L152.570053,1.87500419 C152.570053,2.07225909 152.729941,2.23214784 152.927196,2.23214784 Z M152.927196,5.80358438 L160.784357,5.80358438 C160.981612,5.80358438 161.1415,5.64369563 161.1415,5.44644073 L161.1415,4.55358159 C161.1415,4.35632669 160.981612,4.19643794 160.784357,4.19643794 L152.927196,4.19643794 C152.729941,4.19643794 152.570053,4.35632669 152.570053,4.55358159 L152.570053,5.44644073 C152.570053,5.64369563 152.729941,5.80358438 152.927196,5.80358438 Z M152.927196,9.37502093 L160.784357,9.37502093 C160.981612,9.37502093 161.1415,9.21513218 161.1415,9.01787727 L161.1415,8.12501814 C161.1415,7.92776323 160.981612,7.76787448 160.784357,7.76787448 L152.927196,7.76787448 C152.729941,7.76787448 152.570053,7.92776323 152.570053,8.12501814 L152.570053,9.01787727 C152.570053,9.21513218 152.729941,9.37502093 152.927196,9.37502093 Z" id="list-ol" fill-rule="nonzero"></path>
                        <path d="M129.76652,1.15384615 C129.76652,1.79110577 129.249933,2.30769231 128.612673,2.30769231 C127.975414,2.30769231 127.458827,1.79110577 127.458827,1.15384615 C127.458827,0.516586538 127.975414,0 128.612673,0 C129.249933,0 129.76652,0.516586538 129.76652,1.15384615 Z M128.612673,3.84615385 C127.975414,3.84615385 127.458827,4.36274038 127.458827,5 C127.458827,5.63725962 127.975414,6.15384615 128.612673,6.15384615 C129.249933,6.15384615 129.76652,5.63725962 129.76652,5 C129.76652,4.36274038 129.249933,3.84615385 128.612673,3.84615385 Z M128.612673,7.69230769 C127.975414,7.69230769 127.458827,8.20889423 127.458827,8.84615385 C127.458827,9.48341346 127.975414,10 128.612673,10 C129.249933,10 129.76652,9.48341346 129.76652,8.84615385 C129.76652,8.20889423 129.249933,7.69230769 128.612673,7.69230769 Z M130.920366,2.01923077 L139.381904,2.01923077 C139.594332,2.01923077 139.76652,1.84704327 139.76652,1.63461538 L139.76652,0.673076923 C139.76652,0.460649038 139.594332,0.288461538 139.381904,0.288461538 L130.920366,0.288461538 C130.707938,0.288461538 130.53575,0.460649038 130.53575,0.673076923 L130.53575,1.63461538 C130.53575,1.84704327 130.707938,2.01923077 130.920366,2.01923077 Z M130.920366,5.86538462 L139.381904,5.86538462 C139.594332,5.86538462 139.76652,5.69319712 139.76652,5.48076923 L139.76652,4.51923077 C139.76652,4.30680288 139.594332,4.13461538 139.381904,4.13461538 L130.920366,4.13461538 C130.707938,4.13461538 130.53575,4.30680288 130.53575,4.51923077 L130.53575,5.48076923 C130.53575,5.69319712 130.707938,5.86538462 130.920366,5.86538462 Z M130.920366,9.71153846 L139.381904,9.71153846 C139.594332,9.71153846 139.76652,9.53935096 139.76652,9.32692308 L139.76652,8.36538462 C139.76652,8.15295673 139.594332,7.98076923 139.381904,7.98076923 L130.920366,7.98076923 C130.707938,7.98076923 130.53575,8.15295673 130.53575,8.36538462 L130.53575,9.32692308 C130.53575,9.53935096 130.707938,9.71153846 130.920366,9.71153846 Z" id="list-ul" fill-rule="nonzero"></path>
                        <path d="M117.463113,1.07142857 L117.463113,0.357142857 C117.463113,0.159888393 117.303225,0 117.10597,0 L113.534542,0 C113.337287,0 113.177399,0.159888393 113.177399,0.357142857 L113.177399,1.07142857 C113.177399,1.26868304 113.337287,1.42857143 113.534542,1.42857143 L114.374296,1.42857143 L114.374296,4.28571429 L109.837644,4.28571429 L109.837644,1.42857143 L110.677399,1.42857143 C110.874653,1.42857143 111.034542,1.26868304 111.034542,1.07142857 L111.034542,0.357142857 C111.034542,0.159888393 110.874653,0 110.677399,0 L107.10597,0 C106.908716,0 106.748827,0.159888393 106.748827,0.357142857 L106.748827,1.07142857 C106.748827,1.26868304 106.908716,1.42857143 107.10597,1.42857143 L107.938001,1.42857143 L107.938001,8.57142857 L107.10597,8.57142857 C106.908716,8.57142857 106.748827,8.73131696 106.748827,8.92857143 L106.748827,9.64285714 C106.748827,9.84011161 106.908716,10 107.10597,10 L110.677399,10 C110.874653,10 111.034542,9.84011161 111.034542,9.64285714 L111.034542,8.92857143 C111.034542,8.73131696 110.874653,8.57142857 110.677399,8.57142857 L109.837644,8.57142857 L109.837644,5.71428571 L114.374274,5.71428571 L114.374274,8.57142857 L113.534542,8.57142857 C113.337287,8.57142857 113.177399,8.73131696 113.177399,8.92857143 L113.177399,9.64285714 C113.177399,9.84011161 113.337287,10 113.534542,10 L117.10597,10 C117.303225,10 117.463113,9.84011161 117.463113,9.64285714 L117.463113,8.92857143 C117.463113,8.73131696 117.303225,8.57142857 117.10597,8.57142857 L116.273939,8.57142857 L116.273939,1.42857143 L117.10597,1.42857143 C117.303225,1.42857143 117.463113,1.26868304 117.463113,1.07142857 Z" id="heading"></path>
                        <path d="M253.983417,2.38166016 L253.983417,2.5 L251.483417,2.5 L251.483417,0 L251.601757,0 C251.726072,6.49992441e-07 251.845296,0.0493833037 251.933202,0.137285156 L253.846112,2.05019531 C253.934023,2.13810571 253.983412,2.25733624 253.983417,2.38166016 Z M251.327167,3.125 C251.069355,3.125 250.858417,2.9140625 250.858417,2.65625 L250.858417,0 L246.952167,0 C246.69328,0 246.483417,0.209863281 246.483417,0.46875 L246.483417,9.53125 C246.483417,9.79013672 246.69328,10 246.952167,10 L253.514667,10 C253.773554,10 253.983417,9.79013672 253.983417,9.53125 L253.983417,3.125 L251.327167,3.125 Z M248.681562,3.4375 C249.199335,3.4375 249.619062,3.85722656 249.619062,4.375 C249.619062,4.89277344 249.199335,5.3125 248.681562,5.3125 C248.163788,5.3125 247.744062,4.89277344 247.744062,4.375 C247.744062,3.85722656 248.163808,3.4375 248.681562,3.4375 Z M252.744062,8.125 L247.744062,8.125 L247.753534,7.17802734 L248.525312,6.40625 C248.616835,6.31472656 248.755761,6.32419922 248.847284,6.41572266 L249.619062,7.1875 L251.640839,5.16572266 C251.732362,5.07419922 251.880761,5.07419922 251.972304,5.16572266 L252.744062,5.9375 L252.744062,8.125 Z" id="file-image" fill-rule="nonzero"></path>
                    </g>
                    <g id="Answer" transform="translate(26.000000, 82.000000)">
                        <rect id="Container" fill="#3C3D3F" x="0.5" y="0.5" width="279" height="99" rx="4"></rect>
                        <text id="You-can-calculate-th" font-family="HelveticaNeue, Helvetica Neue" font-size="12" font-weight="normal" fill="#FFFFFF">
                            <tspan x="7" y="17">You can calculate the nth term of a geometric</tspan>
                            <tspan x="7" y="31">sequence by</tspan>
                            <tspan x="7" y="45"></tspan>
                            <tspan x="7" y="59">			An = Ar^n - 1</tspan>
                        </text>
                    </g>
                    <g transform="translate(26.000000, 28.000000)">
                        <rect id="Container" fill="#3C3D3F" x="0.5" y="0.5" width="279" height="50" rx="4"></rect>
                        <text id="How-do-you-calculate" font-family="HelveticaNeue, Helvetica Neue" font-size="12" font-weight="normal" fill="#FFFFFF">
                            <tspan x="7" y="17">How do you calculate the nth term of a</tspan>
                            <tspan x="7" y="31">geometric sequence?</tspan>
                        </text>
                    </g>
                </g>
            </g>
        </g>
    </g>
</svg>